<?xml version="1.0" encoding="UTF-8"?>
<svg id="Layer_1" data-name="Layer 1" xmlns="http://www.w3.org/2000/svg" viewBox="0 0 128 128">
  <defs>
    <style>
      .cls-1 {
        fill: #02f77d;
      }
    </style>
  </defs>
  <path class="cls-1" d="M117.65,109.48l-8.2,8.2c-.55,.55-1.3,.86-2.07,.86h-17.15c-.81,0-1.47-.66-1.47-1.47v-11.92c.01-.81,.67-1.47,1.48-1.47h11.93c.81-.01,1.47-.67,1.47-1.48v-27.22c0-.68,.23-1.35,.67-1.87l6.77-8.17c.45-.54,.45-1.33,0-1.88l-6.77-8.16c-.44-.53-.68-1.19-.68-1.87V25.81c0-.81-.65-1.47-1.46-1.47h-11.94c-.81,0-1.47-.66-1.47-1.47V10.93c0-.81,.66-1.47,1.47-1.47h17.15c.78,0,1.52,.31,2.07,.86l8.2,8.2c.55,.55,.86,1.3,.86,2.07v30.15c0,.67,.23,1.33,.66,1.85l8.5,10.47c.44,.54,.44,1.32,0,1.86l-8.48,10.31c-.43,.52-.67,1.18-.67,1.86v30.31c0,.78-.31,1.52-.86,2.07Z"/>
  <path class="cls-1" d="M10.3,18.52l8.2-8.2c.55-.55,1.29-.86,2.07-.86h17.15c.81,0,1.47,.66,1.47,1.47v11.92c-.01,.81-.67,1.47-1.48,1.47h-11.92c-.81,.01-1.47,.67-1.47,1.48v27.22c0,.68-.24,1.34-.67,1.87l-6.76,8.17c-.45,.54-.45,1.33,0,1.88l6.76,8.17c.43,.52,.67,1.19,.67,1.87v27.22c0,.81,.66,1.47,1.47,1.47h11.93c.81,0,1.47,.66,1.47,1.47v11.93c0,.81-.66,1.47-1.47,1.47H20.57c-.78,0-1.52-.31-2.07-.86l-8.2-8.2c-.55-.55-.86-1.29-.86-2.07v-30.87c0-.7-.25-1.38-.71-1.92L.36,64.97c-.48-.55-.48-1.38,0-1.93l8.35-9.58c.47-.53,.72-1.22,.72-1.92V20.59c0-.78,.31-1.52,.86-2.07Z"/>
  <path class="cls-1" d="M39.17,87.35v-16.94c0-.81,.66-1.47,1.47-1.47h46.65c.81,.01,1.47,.67,1.47,1.48v16.89c0,.81-.66,1.47-1.47,1.47h-6.98c-.81,0-1.47-.66-1.47-1.47v-6.97c0-.81-.66-1.47-1.47-1.47h-26.82c-.81,0-1.47,.67-1.47,1.48v7c0,.81-.66,1.47-1.47,1.47h-6.97c-.81,0-1.47-.66-1.47-1.47Z"/>
  <path class="cls-1" d="M88.76,40.68v16.9c0,.81-.66,1.47-1.47,1.47H40.62c-.81,0-1.47-.66-1.47-1.47v-16.94c0-.81,.66-1.47,1.47-1.47h7.02c.81,0,1.47,.66,1.47,1.47v7.01c0,.81,.66,1.47,1.47,1.47h26.81c.81,0,1.47-.66,1.47-1.47v-6.96c0-.81,.66-1.47,1.47-1.47h6.98c.81,0,1.47,.66,1.47,1.47Z"/>
</svg>
